<mxfile host="Electron" modified="2024-03-14T15:31:57.903Z" agent="Mozilla/5.0 (Windows NT 10.0; Win64; x64) AppleWebKit/537.36 (KHTML, like Gecko) draw.io/24.0.4 Chrome/120.0.6099.109 Electron/28.1.0 Safari/537.36" etag="uKSddTHeqGwJ5vJO1MUE" version="24.0.4" type="device">
  <diagram name="Page-1" id="Qr7z6VolVFZ8A7DSd38S">
    <mxGraphModel dx="1050" dy="629" grid="1" gridSize="10" guides="1" tooltips="1" connect="1" arrows="1" fold="1" page="1" pageScale="1" pageWidth="827" pageHeight="1169" math="0" shadow="0">
      <root>
        <mxCell id="0" />
        <mxCell id="1" parent="0" />
        <mxCell id="_UYj4Dn4LdExEfmKZelz-1" value="&lt;font style=&quot;font-size: 18px;&quot;&gt;Working&lt;/font&gt;&lt;div style=&quot;font-size: 18px;&quot;&gt;&lt;font style=&quot;font-size: 18px;&quot;&gt;Tree&lt;/font&gt;&lt;/div&gt;" style="shape=datastore;whiteSpace=wrap;html=1;fillColor=#f5f5f5;fontColor=#000000;strokeColor=#000000;strokeWidth=3;" parent="1" vertex="1">
          <mxGeometry x="70" y="40" width="100" height="120" as="geometry" />
        </mxCell>
        <mxCell id="_UYj4Dn4LdExEfmKZelz-2" value="&lt;font style=&quot;font-size: 18px;&quot;&gt;Remote&lt;/font&gt;&lt;div style=&quot;font-size: 18px;&quot;&gt;&lt;span style=&quot;background-color: initial;&quot;&gt;&lt;font style=&quot;font-size: 18px;&quot;&gt;Repository&lt;/font&gt;&lt;/span&gt;&lt;/div&gt;" style="ellipse;shape=cloud;whiteSpace=wrap;html=1;fillColor=#dae8fc;strokeColor=#6c8ebf;strokeWidth=3;" parent="1" vertex="1">
          <mxGeometry x="620" y="30" width="180" height="133" as="geometry" />
        </mxCell>
        <mxCell id="_UYj4Dn4LdExEfmKZelz-4" value="&lt;font style=&quot;font-size: 18px;&quot;&gt;Local&lt;/font&gt;&lt;div style=&quot;font-size: 18px;&quot;&gt;&lt;span style=&quot;background-color: initial;&quot;&gt;&lt;font style=&quot;font-size: 18px;&quot;&gt;Repository&lt;/font&gt;&lt;/span&gt;&lt;/div&gt;" style="rounded=1;whiteSpace=wrap;html=1;fillColor=#d5e8d4;strokeColor=#82b366;strokeWidth=3;" parent="1" vertex="1">
          <mxGeometry x="460" y="50" width="120" height="101" as="geometry" />
        </mxCell>
        <mxCell id="_UYj4Dn4LdExEfmKZelz-5" value="&lt;font style=&quot;font-size: 18px;&quot;&gt;Staging&lt;/font&gt;&lt;div&gt;&lt;font style=&quot;font-size: 18px;&quot;&gt;Area&lt;/font&gt;&lt;/div&gt;" style="shape=note;whiteSpace=wrap;html=1;backgroundOutline=1;darkOpacity=0.05;strokeWidth=3;" parent="1" vertex="1">
          <mxGeometry x="270" y="40" width="100" height="120" as="geometry" />
        </mxCell>
        <mxCell id="_UYj4Dn4LdExEfmKZelz-8" value="" style="endArrow=none;html=1;rounded=0;entryX=0.5;entryY=1;entryDx=0;entryDy=0;entryPerimeter=0;strokeWidth=3;" parent="1" target="_UYj4Dn4LdExEfmKZelz-5" edge="1">
          <mxGeometry width="50" height="50" relative="1" as="geometry">
            <mxPoint x="320" y="680" as="sourcePoint" />
            <mxPoint x="420" y="300" as="targetPoint" />
          </mxGeometry>
        </mxCell>
        <mxCell id="_UYj4Dn4LdExEfmKZelz-9" value="" style="endArrow=none;html=1;rounded=0;entryX=0.5;entryY=1;entryDx=0;entryDy=0;strokeWidth=3;" parent="1" target="_UYj4Dn4LdExEfmKZelz-1" edge="1">
          <mxGeometry width="50" height="50" relative="1" as="geometry">
            <mxPoint x="120" y="680" as="sourcePoint" />
            <mxPoint x="170" y="260" as="targetPoint" />
          </mxGeometry>
        </mxCell>
        <mxCell id="_UYj4Dn4LdExEfmKZelz-10" value="" style="endArrow=none;html=1;rounded=0;entryX=0.5;entryY=1;entryDx=0;entryDy=0;strokeWidth=3;" parent="1" target="_UYj4Dn4LdExEfmKZelz-4" edge="1">
          <mxGeometry width="50" height="50" relative="1" as="geometry">
            <mxPoint x="520" y="680" as="sourcePoint" />
            <mxPoint x="490" y="230" as="targetPoint" />
          </mxGeometry>
        </mxCell>
        <mxCell id="_UYj4Dn4LdExEfmKZelz-18" value="&lt;font style=&quot;font-size: 14px;&quot;&gt;&lt;b&gt;git add&lt;/b&gt;&lt;/font&gt;" style="html=1;shadow=0;dashed=0;align=center;verticalAlign=middle;shape=mxgraph.arrows2.arrow;dy=0.6;dx=40;notch=0;fillColor=#ffe6cc;strokeColor=#d79b00;" parent="1" vertex="1">
          <mxGeometry x="120" y="170" width="200" height="70" as="geometry" />
        </mxCell>
        <mxCell id="_UYj4Dn4LdExEfmKZelz-19" value="&lt;font style=&quot;font-size: 14px;&quot;&gt;&lt;b&gt;git commit&lt;/b&gt;&lt;/font&gt;" style="html=1;shadow=0;dashed=0;align=center;verticalAlign=middle;shape=mxgraph.arrows2.arrow;dy=0.6;dx=40;notch=0;fillColor=#ffe6cc;strokeColor=#d79b00;" parent="1" vertex="1">
          <mxGeometry x="320" y="210" width="200" height="70" as="geometry" />
        </mxCell>
        <mxCell id="_UYj4Dn4LdExEfmKZelz-21" value="&lt;font style=&quot;font-size: 14px;&quot;&gt;&lt;b&gt;git merge&lt;/b&gt;&lt;/font&gt;" style="html=1;shadow=0;dashed=0;align=center;verticalAlign=middle;shape=mxgraph.arrows2.arrow;dy=0.6;dx=40;flipH=1;notch=0;fillColor=#ffe6cc;strokeColor=#d79b00;" parent="1" vertex="1">
          <mxGeometry x="120" y="530" width="400" height="70" as="geometry" />
        </mxCell>
        <mxCell id="_UYj4Dn4LdExEfmKZelz-24" value="&lt;font color=&quot;#ffffff&quot; style=&quot;font-size: 14px;&quot;&gt;&lt;b&gt;git diff&lt;/b&gt;&lt;/font&gt;" style="html=1;shadow=0;dashed=0;align=center;verticalAlign=middle;shape=mxgraph.arrows2.twoWayArrow;dy=0.6;dx=35;gradientColor=#FF8000;fillColor=#00CC00;gradientDirection=east;" parent="1" vertex="1">
          <mxGeometry x="120" y="320" width="200" height="60" as="geometry" />
        </mxCell>
        <mxCell id="_UYj4Dn4LdExEfmKZelz-25" value="&lt;font color=&quot;#ffffff&quot; style=&quot;font-size: 14px;&quot;&gt;&lt;b&gt;git diff HEAD&lt;/b&gt;&lt;/font&gt;" style="html=1;shadow=0;dashed=0;align=center;verticalAlign=middle;shape=mxgraph.arrows2.twoWayArrow;dy=0.6;dx=35;gradientColor=#FF8000;fillColor=#00CC00;gradientDirection=east;" parent="1" vertex="1">
          <mxGeometry x="120" y="400" width="400" height="60" as="geometry" />
        </mxCell>
        <mxCell id="_UYj4Dn4LdExEfmKZelz-27" value="" style="endArrow=none;html=1;rounded=0;strokeWidth=3;entryX=0.55;entryY=0.95;entryDx=0;entryDy=0;entryPerimeter=0;" parent="1" target="_UYj4Dn4LdExEfmKZelz-2" edge="1">
          <mxGeometry width="50" height="50" relative="1" as="geometry">
            <mxPoint x="719" y="680" as="sourcePoint" />
            <mxPoint x="680" y="430" as="targetPoint" />
          </mxGeometry>
        </mxCell>
        <mxCell id="_UYj4Dn4LdExEfmKZelz-23" value="&lt;font style=&quot;font-size: 14px;&quot;&gt;&lt;b&gt;git push&lt;/b&gt;&lt;/font&gt;" style="html=1;shadow=0;dashed=0;align=center;verticalAlign=middle;shape=mxgraph.arrows2.arrow;dy=0.6;dx=40;notch=0;fillColor=#ffe6cc;strokeColor=#d79b00;" parent="1" vertex="1">
          <mxGeometry x="520" y="250" width="200" height="70" as="geometry" />
        </mxCell>
        <mxCell id="_UYj4Dn4LdExEfmKZelz-22" value="&lt;font style=&quot;font-size: 14px;&quot;&gt;&lt;b&gt;git fetch&lt;/b&gt;&lt;/font&gt;" style="html=1;shadow=0;dashed=0;align=center;verticalAlign=middle;shape=mxgraph.arrows2.arrow;dy=0.6;dx=40;flipH=1;notch=0;fillColor=#ffe6cc;strokeColor=#d79b00;" parent="1" vertex="1">
          <mxGeometry x="520" y="480" width="200" height="70" as="geometry" />
        </mxCell>
        <mxCell id="_UYj4Dn4LdExEfmKZelz-20" value="&lt;font style=&quot;font-size: 14px;&quot;&gt;&lt;b&gt;git clone / git pull&lt;/b&gt;&lt;/font&gt;" style="html=1;shadow=0;dashed=0;align=center;verticalAlign=middle;shape=mxgraph.arrows2.arrow;dy=0.6;dx=40;flipH=1;notch=0;fillColor=#ffe6cc;strokeColor=#d79b00;" parent="1" vertex="1">
          <mxGeometry x="120" y="610" width="600" height="70" as="geometry" />
        </mxCell>
      </root>
    </mxGraphModel>
  </diagram>
</mxfile>
